<svg width="421" height="155" viewBox="0 0 421 155" fill="none" xmlns="http://www.w3.org/2000/svg">
<g filter="url(#filter0_d_12_128)">
<path d="M72.4339 144.736L59.8409 144.57V64.9843L44.0247 109.823L33.3722 111.583L26.7561 85.6409L20.4613 57.4587L23.7811 84.6461L22.3711 144.096L6.79492 143.9C6.79492 141.225 9.15798 4.75399 9.15798 4.75399H19.5588L37.1569 82.8807L36.2 97.416L55.483 4.75399H68.7194L72.4339 144.736ZM136.22 21.9801L139.168 66.7884L137.455 111.212L126.017 141.496L100.985 144.735L84.739 114.734L84.6421 41.3857C84.1308 39.4755 91.6226 11.7957 91.6226 11.7957L113.327 2.1875L123.224 4.70869L104.305 16.8649L93.0361 41.8462L93.3886 94.8532C93.3886 94.8532 101.198 125.917 101.992 125.917C102.787 125.917 112.223 134.327 112.223 134.327L121.798 126.879L129.48 100.776L132.827 65.7069L127.016 37.3623L113.636 39.9256L105.362 68.4347L108.178 82.0434L118.037 79.6414L113.416 62.5078L119.885 61.0665C119.885 61.0665 122.526 81.9625 122.526 82.6845C122.526 83.2073 115.926 115.351 115.926 115.351L110.379 120.878L105.626 93.0146L101.663 68.4365L107.21 31.0407L125.765 11.8821L136.22 21.9801ZM198.925 4.10552L191.837 49.2528H183.071L191.499 51.3935L176.838 144.732L168.455 144.102L143.242 4.10382H159.352L169.846 86.5876L172.174 108.94L171.422 93.9626L184.202 4.10331H198.926L198.925 4.10552ZM234.91 132.045L243.029 132.083L242.464 144.735L213.652 144.685L213.005 133.367L220.164 132.891L220.911 111.429L219.459 32.1491L217.894 60.0786C217.464 45.5087 217.13 29.0826 216.914 18.5413L207.117 18.9487V5.07826L243.917 4.8207L243.352 17.907L234.733 17.7995L234.91 132.045ZM305.521 103.086C306.082 105.008 306.307 120.381 305.18 122.299C304.057 124.221 286.435 144.501 286.435 144.501L276.933 144.693L268.202 144.728L270.031 125.904L271.313 113.394L273.8 101.725L278.057 91.7869L289.108 98.478L292.812 115.092L286.063 121.276L281.562 120.073L287.326 114.727L279.873 105.48L276.216 122.775L276.569 129.743L279.451 133.144L285.452 132.344L294.311 123.578L298.436 107.406L291.452 93.4354L282.453 83.0276L273.687 80.9867L268.625 89.7841L265.487 113.759C265.487 113.759 263.775 143.832 263.613 143.563V143.848L256.489 144.524C255.927 144.186 256.489 4.86675 256.489 4.86675L276.734 7.265L286.294 14.9513L295.292 33.6873L294.301 38.0917L289.858 31.7657C289.858 31.7657 279.732 19.9128 278.608 19.5939C277.485 19.275 268.111 17.3533 268.111 17.3533L263.048 28.8828V44.2559L273.921 51.3005L282.37 46.4963L286.201 39.7897L278.701 32.5837L273.639 35.0664L279.077 40.5125L275.982 44.2752L268.297 39.7749L269.703 29.7055L272.798 25.3817L284.326 31.5422L293.515 42.5107L284.047 58.6675L272.798 62.9913L285.17 70.6776L295.296 77.4033C295.296 77.4033 301.25 86.869 301.811 88.3105C302.373 89.752 304.96 101.162 305.522 103.084L305.521 103.086ZM329.659 131.58L354.28 130.32V144.305L314.845 144.735L315.857 88.74L312.231 4.94761L352.617 4.86691L351.529 18.5413L322.964 17.8228L331.168 20.0403L326.435 63.8799L347.179 65.1597L347.822 80.5323L332.284 81.0627L331.277 73.2455L329.659 131.58ZM399.845 23.9556L388.297 18.1379L380.065 23.4457L378.888 35.3828L380.205 42.1661C383.908 46.5242 400.402 72.3579 400.402 72.3579L412.992 94.5454C412.992 94.5454 415.068 121.883 414.998 123.205C414.929 124.527 406.964 141.172 406.964 141.172L386.016 144.742L369.766 137.34L362.564 124.069L366 100.41L383.37 92.8999L394.565 102.689L396.18 117.685L388.212 126.516L377.97 123.768L378.776 113.68L384.989 110.236L384.745 113.841L380.871 119.526L387.31 118.588L389.963 109.322L382.847 105.009L376.661 110.897L374.336 120.525L375.44 126.889L391.078 130.774L398.667 120.947L400.48 114.475L399.19 98.8216L387.728 75.4468L373.349 56.7188L365.779 32.253L370.622 11.9145L386.6 3.85518L405 9.75053L411.113 18.1363L411.295 35.2117L404.032 46.9833L390.242 46.5528L383.06 34.5465L386.113 26.084L391.439 24.4007L398.338 30.0463L397.257 35.2117L391.075 32.4831L397.621 40.9075L402.134 35.7497L399.845 23.9556Z" fill="#3DD2CC"/>
</g>
<defs>
<filter id="filter0_d_12_128" x="0.794922" y="0.1875" width="420.205" height="154.555" filterUnits="userSpaceOnUse" color-interpolation-filters="sRGB">
<feFlood flood-opacity="0" result="BackgroundImageFix"/>
<feColorMatrix in="SourceAlpha" type="matrix" values="0 0 0 0 0 0 0 0 0 0 0 0 0 0 0 0 0 0 127 0" result="hardAlpha"/>
<feOffset dy="4"/>
<feGaussianBlur stdDeviation="3"/>
<feComposite in2="hardAlpha" operator="out"/>
<feColorMatrix type="matrix" values="0 0 0 0 0.239216 0 0 0 0 0.823529 0 0 0 0 0.8 0 0 0 0.25 0"/>
<feBlend mode="normal" in2="BackgroundImageFix" result="effect1_dropShadow_12_128"/>
<feBlend mode="normal" in="SourceGraphic" in2="effect1_dropShadow_12_128" result="shape"/>
</filter>
</defs>
</svg>
